<?xml version="1.0" encoding="UTF-8" standalone="no"?>
<!--
  Google Ads Responsive Display — square marketing image (1200x1200)
-->
<svg xmlns="http://www.w3.org/2000/svg" xmlns:xlink="http://www.w3.org/1999/xlink"
     viewBox="0 0 1200 1200" width="1200" height="1200">
  <defs>
    <linearGradient id="adS" x1="0" y1="0" x2="0" y2="1">
      <stop offset="0" stop-color="#0D1A63" stop-opacity="0.40"/>
      <stop offset="1" stop-color="#0D1A63" stop-opacity="0.92"/>
    </linearGradient>
  </defs>

  <image xlink:href="../../assets/images/socials/16_ida_laser.jpg"
         x="0" y="0" width="1200" height="1200" preserveAspectRatio="xMidYMid slice"/>
  <rect x="0" y="0" width="1200" height="1200" fill="url(#adS)"/>

  <!-- Gear mark + name top -->
  <g transform="translate(80, 130)">
    <!-- Gear mark (gear-mark-white.svg colorway, knockout on photo) -->
    <g transform="translate(0, 14) scale(0.21)">
      <g fill="#FFFFFF" stroke="#FFFFFF" stroke-width="14" stroke-linejoin="round" stroke-linecap="round">
        <polygon points="-32,-345 32,-345 40,-290 -40,-290"/>
        <polygon points="-32,-345 32,-345 40,-290 -40,-290" transform="rotate(30)"/>
        <polygon points="-32,-345 32,-345 40,-290 -40,-290" transform="rotate(60)"/>
        <polygon points="-32,-345 32,-345 40,-290 -40,-290" transform="rotate(90)"/>
        <polygon points="-32,-345 32,-345 40,-290 -40,-290" transform="rotate(120)"/>
        <polygon points="-32,-345 32,-345 40,-290 -40,-290" transform="rotate(150)"/>
        <polygon points="-32,-345 32,-345 40,-290 -40,-290" transform="rotate(180)"/>
        <polygon points="-32,-345 32,-345 40,-290 -40,-290" transform="rotate(210)"/>
        <polygon points="-32,-345 32,-345 40,-290 -40,-290" transform="rotate(240)"/>
        <polygon points="-32,-345 32,-345 40,-290 -40,-290" transform="rotate(270)"/>
        <polygon points="-32,-345 32,-345 40,-290 -40,-290" transform="rotate(300)"/>
        <polygon points="-32,-345 32,-345 40,-290 -40,-290" transform="rotate(330)"/>
      </g>
      <circle r="290" fill="#FFFFFF"/>
      <circle r="220" fill="#0D1A63"/>
      <circle r="220" fill="none" stroke="#FFFFFF" stroke-width="12"/>
      <text x="0" y="-10" font-family="Inter Display, Inter, sans-serif" font-weight="900" font-size="270"
            fill="#FFFFFF" stroke="#FFFFFF" stroke-width="14" stroke-linejoin="round" stroke-linecap="round"
            text-anchor="middle" letter-spacing="-4">T</text>
      <text x="0" y="185" font-family="Inter Display, Inter, sans-serif" font-weight="900" font-size="230"
            fill="#FFFFFF" stroke="#FFFFFF" stroke-width="14" stroke-linejoin="round" stroke-linecap="round"
            text-anchor="middle" letter-spacing="-4">M</text>
    </g>
    <text x="100" y="34" font-family="Inter, sans-serif" font-weight="700" font-size="36"
          fill="#FFFFFF">O'Town Makerspace</text>
  </g>

  <!-- Headline -->
  <text x="80" y="780" font-family="Inter Display, Inter, sans-serif"
        font-weight="800" font-size="100" fill="#FFFFFF" letter-spacing="-3">Maker tools</text>
  <text x="80" y="900" font-family="Inter Display, Inter, sans-serif"
        font-weight="800" font-size="100" fill="#F68048" letter-spacing="-3">in central Odense.</text>

  <text x="80" y="980" font-family="Inter, sans-serif" font-weight="500"
        font-size="36" fill="#EDF2F8">Community workshop · 24/7 member access</text>

  <rect x="80" y="1050" width="380" height="80" rx="40" fill="#F68048"/>
  <text x="270" y="1102" font-family="Inter, sans-serif" font-weight="700"
        font-size="28" fill="#FFFFFF" text-anchor="middle" letter-spacing="2">BOOK A FREE TOUR</text>
</svg>
