<?xml version="1.0" encoding="UTF-8" standalone="no"?>
<!--
  Gear mark — REVERSED colorway. The standard mark's navy↔orange roles
  are swapped: the gear ring and M are warm orange, the T is brand navy.
  Inner cap stays cream so both letters read against a consistent
  contrast surface (same trick gear-mark-transparent.svg uses).

  Background is transparent — no outer fill rect — so this composites
  cleanly onto any host surface. Use it whenever you want the orange
  to lead and the navy to accent (the inverse of the default mark's
  hierarchy).
-->
<svg xmlns="http://www.w3.org/2000/svg" viewBox="0 0 800 800" width="800" height="800">
  <g transform="translate(400, 400)">
    <g fill="#F68048" stroke="#F68048" stroke-width="14"
       stroke-linejoin="round" stroke-linecap="round">
      <polygon points="-32,-345 32,-345 40,-290 -40,-290"/>
      <polygon points="-32,-345 32,-345 40,-290 -40,-290" transform="rotate(30)"/>
      <polygon points="-32,-345 32,-345 40,-290 -40,-290" transform="rotate(60)"/>
      <polygon points="-32,-345 32,-345 40,-290 -40,-290" transform="rotate(90)"/>
      <polygon points="-32,-345 32,-345 40,-290 -40,-290" transform="rotate(120)"/>
      <polygon points="-32,-345 32,-345 40,-290 -40,-290" transform="rotate(150)"/>
      <polygon points="-32,-345 32,-345 40,-290 -40,-290" transform="rotate(180)"/>
      <polygon points="-32,-345 32,-345 40,-290 -40,-290" transform="rotate(210)"/>
      <polygon points="-32,-345 32,-345 40,-290 -40,-290" transform="rotate(240)"/>
      <polygon points="-32,-345 32,-345 40,-290 -40,-290" transform="rotate(270)"/>
      <polygon points="-32,-345 32,-345 40,-290 -40,-290" transform="rotate(300)"/>
      <polygon points="-32,-345 32,-345 40,-290 -40,-290" transform="rotate(330)"/>
    </g>
    <circle r="290" fill="#F68048"/>
    <circle r="220" fill="#EDF2F8"/>
    <circle r="220" fill="none" stroke="#F68048" stroke-width="12"/>
    <text x="0" y="-10" font-family="Inter Display, Inter, sans-serif"
          font-weight="900" font-size="270"
          fill="#0D1A63" stroke="#0D1A63" stroke-width="14"
          stroke-linejoin="round" stroke-linecap="round"
          text-anchor="middle" letter-spacing="-4">T</text>
    <text x="0" y="185" font-family="Inter Display, Inter, sans-serif"
          font-weight="900" font-size="230"
          fill="#F68048" stroke="#F68048" stroke-width="14"
          stroke-linejoin="round" stroke-linecap="round"
          text-anchor="middle" letter-spacing="-4">M</text>
  </g>
</svg>
